<svg height="512pt" viewBox="0 -6 512.001 512" width="512pt" xmlns="http://www.w3.org/2000/svg"><path d="m125.453125 431.75h261.09375v60.265625h-261.09375zm0 0" fill="#dad0cd"/><path d="m491.394531 443.871094h-470.789062c-11.378907 0-20.605469-9.222656-20.605469-20.605469v-295.539063c0-11.378906 9.226562-20.601562 20.605469-20.601562h470.792969c11.378906 0 20.601562 9.222656 20.601562 20.601562v295.539063c0 11.382813-9.226562 20.605469-20.605469 20.605469zm0 0" fill="#ff97bd"/><path d="m512 127.726562v295.539063c0 11.386719-9.21875 20.605469-20.605469 20.605469h-32.613281c11.382812 0 20.601562-9.21875 20.601562-20.605469v-295.539063c0-11.382812-9.21875-20.601562-20.601562-20.601562h32.613281c11.386719 0 20.605469 9.21875 20.605469 20.601562zm0 0" fill="#fc6393"/><path d="m512 393.371094v29.894531c0 11.386719-9.21875 20.605469-20.605469 20.605469h-470.789062c-11.386719 0-20.605469-9.21875-20.605469-20.605469v-29.894531zm0 0" fill="#6b97af"/><path d="m512 393.371094v29.894531c0 11.386719-9.21875 20.605469-20.605469 20.605469h-32.613281c11.382812 0 20.601562-9.21875 20.601562-20.605469v-29.894531zm0 0" fill="#50758e"/><path d="m410.871094 499.742188h-309.742188c-4.265625 0-7.726562-3.460938-7.726562-7.726563 0-4.269531 3.460937-7.726563 7.726562-7.726563h309.742188c4.265625 0 7.726562 3.457032 7.726562 7.726563 0 4.265625-3.460937 7.726563-7.726562 7.726563zm0 0" fill="#6b97af"/><path d="m256.054688 426.34375c-.015626 0-.027344 0-.039063 0h-.105469c-4.265625-.019531-7.710937-3.496094-7.691406-7.761719.019531-4.253906 3.476562-7.691406 7.726562-7.691406h.035157.109375c4.265625.019531 7.710937 3.496094 7.6875 7.765625-.015625 4.253906-3.472656 7.6875-7.722656 7.6875zm0 0" fill="#dad0cd"/><path d="m426.589844 170.585938c0 94.210937-76.378906 170.578124-170.589844 170.578124-19.378906 0-38.003906-3.234374-55.371094-9.1875-58.472656-20.058593-102.605468-70.992187-112.929687-133.347656-1.503907-9.128906-2.285157-18.492187-2.285157-28.042968 0-60.039063 31.019532-112.835938 77.910157-143.234376 26.683593-17.296874 58.515625-27.351562 92.675781-27.351562 68.609375 0 127.753906 40.507812 154.835938 98.910156 10.117187 21.785156 15.753906 46.066406 15.753906 71.675782zm0 0" fill="#27bef4"/><path d="m426.589844 170.585938c0 94.210937-76.378906 170.578124-170.589844 170.578124-6.800781 0-13.507812-.402343-20.097656-1.183593 84.699218-9.984375 150.40625-82.015625 150.40625-169.394531 0-25.609376-5.636719-49.890626-15.753906-71.679688-24.394532-52.601562-74.800782-90.6875-134.703126-97.722656 6.613282-.78125 13.328126-1.183594 20.148438-1.183594 68.609375 0 127.753906 40.507812 154.835938 98.910156 10.117187 21.785156 15.753906 46.066406 15.753906 71.675782zm0 0" fill="#209ced"/><path d="m232.59375 312.589844c-1.050781 0-2.089844-.050782-3.121094-.136719-10.917968-.90625-21.128906 5.246094-26.21875 14.960937-.8125 1.554688-1.6875 3.078126-2.625 4.5625-58.472656-20.058593-102.605468-70.988281-112.929687-133.347656 2.320312-3.84375 5.277343-7.394531 8.851562-10.507812 17.179688-14.949219 43.378907-14.207032 59.675781 1.710937 8.707032 8.507813 13.113282 19.632813 13.308594 30.78125.15625 8.789063 4.433594 16.957031 11.765625 21.808594.566407.382813 1.125.761719 1.679688 1.15625 8.933593 6.324219 20.71875 6.242187 30 .441406 6.34375-3.964843 13.988281-6.066406 22.136719-5.523437 18.328124 1.21875 33.183593 16.011718 34.472656 34.328125 1.511718 21.695312-15.628906 39.765625-36.996094 39.765625zm0 0" fill="#00e2c7"/><path d="m410.835938 98.90625c-7.199219 12.15625-17.511719 22.285156-29.84375 29.257812-.894532.503907-1.792969.988282-2.710938 1.464844-9.640625 4.972656-15.8125 14.773438-16.027344 25.609375-.03125 1.566407-.144531 3.152344-.332031 4.75-2.667969 22.394531-21.242187 39.949219-43.761719 41.378907-27.441406 1.730468-50.230468-20.003907-50.230468-47.078126 0-8.210937 2.101562-15.9375 5.789062-22.664062 5.234375-9.507812 5.285156-21.097656-.585938-30.234375-.074218-.125-.15625-.25-.238281-.382813-6.65625-10.484374-19.097656-15.8125-31.222656-13.125-4.503906 1.011719-9.191406 1.535157-14 1.535157-34.789063 0-63.121094-27.578125-64.347656-62.066407 21.355469-13.847656 46.019531-23.054687 72.527343-26.167968 6.613282-.78125 13.328126-1.183594 20.148438-1.183594 68.609375 0 127.753906 40.507812 154.835938 98.90625zm0 0" fill="#00e2c7"/><path d="m410.835938 98.90625c-7.199219 12.15625-17.511719 22.285156-29.84375 29.257812-2.597657-10.148437-6.109376-19.933593-10.4375-29.257812-24.394532-52.601562-74.800782-90.6875-134.703126-97.722656 6.613282-.78125 13.328126-1.183594 20.148438-1.183594 68.609375 0 127.753906 40.507812 154.835938 98.90625zm0 0" fill="#00c6a9"/><g fill="#00e2c7"><path d="m215.824219 141.445312c-.011719 0-.023438 0-.039063 0h-.105468c-4.265626-.023437-7.710938-3.496093-7.691407-7.765624.023438-4.253907 3.476563-7.6875 7.726563-7.6875h.039062.105469c4.265625.019531 7.710937 3.496093 7.691406 7.761718-.023437 4.253906-3.476562 7.691406-7.726562 7.691406zm0 0"/><path d="m292.058594 293.910156c-.015625 0-.027344 0-.039063 0h-.105469c-4.269531-.019531-7.710937-3.496094-7.691406-7.761718.019532-4.257813 3.476563-7.691407 7.726563-7.691407h.035156.109375c4.265625.019531 7.707031 3.496094 7.6875 7.761719-.019531 4.257812-3.472656 7.691406-7.722656 7.691406zm0 0"/></g></svg>